<mxfile host="app.diagrams.net" modified="2023-10-24T07:12:44.767Z" agent="Mozilla/5.0 (Windows NT 10.0; Win64; x64; rv:109.0) Gecko/20100101 Firefox/118.0" version="22.0.6" etag="HNHIKaOKd9m29YZbgl00" type="github">
  <diagram name="Page-1" id="oRHurBp9lDN1GLAHn_iE">
    <mxGraphModel>
      <root>
        <mxCell id="0" />
        <mxCell id="1" parent="0" />
      </root>
    </mxGraphModel>
  </diagram>
</mxfile>
